<svg width="300" height="300" viewBox="0 0 300 300" fill="none" xmlns="http://www.w3.org/2000/svg">
<g clip-path="url(#clip0_243_340)">
<rect width="300" height="300" fill="black"/>
<path d="M255.239 186.887C255.239 264.623 220.005 264.623 147.04 264.623C74.0744 264.623 38.8403 258.533 38.8403 186.887C38.8403 115.241 87.2828 57.1606 147.04 57.1606C206.796 57.1606 255.239 115.241 255.239 186.887Z" fill="white"/>
<path d="M247.721 47.6334C256.578 42.3412 261.006 39.695 263.304 41.4706C265.601 43.2461 263.654 47.8092 259.759 56.9354L231.583 122.955C229.646 127.493 228.678 129.761 226.637 130.265C224.596 130.769 222.605 129.23 218.622 126.153L182.73 98.4178C178.747 95.3406 176.756 93.802 176.902 91.8335C177.047 89.865 179.249 88.5493 183.652 85.9179L247.721 47.6334Z" fill="white"/>
<path d="M32.6648 58.1365C31.5634 54.9462 35.0106 52.0712 38.2765 53.4561L101.9 80.4367C104.632 81.5952 105.205 84.9928 102.98 86.8479L60.8129 122.017C58.5886 123.872 55.0423 122.955 54.1209 120.286L32.6648 58.1365Z" fill="white"/>
<path d="M80.517 195.845C85.4013 181.679 105.75 182.641 109.276 197.205L125.236 263.115C127.987 274.476 117.261 284.479 106.119 280.942L71.2503 269.873C63.2164 267.322 58.8606 258.655 61.6081 250.686L80.517 195.845Z" fill="black"/>
<path d="M173.451 205.77C175.998 190.211 197.912 188.999 202.628 204.156L218.959 256.638C221.747 265.598 215.748 274.766 206.443 275.765L181.074 278.491C171.134 279.559 162.804 270.804 164.413 260.978L173.451 205.77Z" fill="black"/>
<path d="M69.9539 218.244C65.5477 236.452 65.4968 249.364 61.4205 250.024C57.3442 250.683 49.2683 232.705 49.2683 232.705C47.7644 224.587 51.8978 221.284 55.9741 220.624C73.4731 207.499 73.9326 201.802 69.9539 218.244Z" fill="white"/>
<path d="M222.913 194.035C213.939 222.927 213.473 226.385 213.62 244.18C213.711 255.238 223.413 260.807 233.092 254.348C236.23 252.254 236.699 251.189 238.663 248.075C240.055 245.867 241.163 243.826 242.023 241.943C247.091 230.84 239.116 218.371 236.925 206.609C232.252 181.528 231.287 167.076 222.913 194.035Z" fill="white"/>
<path d="M125.879 257.075C131.438 263.597 142.571 263.95 137.898 267.43C133.224 270.911 124.929 268.445 119.369 261.923C113.81 255.401 113.092 247.292 117.766 243.811C122.439 240.33 120.319 250.553 125.879 257.075Z" fill="white"/>
<path d="M125.879 257.075C131.438 263.597 142.571 263.95 137.898 267.43C133.224 270.911 124.929 268.445 119.369 261.923C113.81 255.401 113.092 247.292 117.766 243.811C122.439 240.33 120.319 250.553 125.879 257.075Z" fill="black"/>
<path d="M159.162 251.078C168.03 240.15 168.228 217.93 174.765 222.564C181.302 227.199 180.286 249.031 171.418 259.959C162.55 270.887 150.062 275.989 143.525 271.354C136.988 266.719 150.294 262.006 159.162 251.078Z" fill="black"/>
<ellipse cx="113.193" cy="102.802" rx="3.88407" ry="4.14925" fill="black"/>
<ellipse cx="184.771" cy="102.802" rx="3.88407" ry="4.14925" fill="black"/>
</g>
<defs>
<clipPath id="clip0_243_340">
<rect width="300" height="300" fill="white"/>
</clipPath>
</defs>
</svg>
